<svg viewBox="4 4 32 32">
  <rect width="40" height="40" fill="white" />
  <path
    d="M31.0327 17.9301H31.0024L31.0644 18.1739L31.0947 18.4189L31.125 18.9407L31.0947 19.4018L31.0024 19.921L30.9115 20.4124L30.7271 20.8709L30.5136 21.3624L30.2685 21.7893L29.9629 22.2215L29.6229 22.5877L29.2566 22.9553L28.918 23.203L28.4898 23.4784L28.03 23.7538L27.5385 23.9672L27.0497 24.1214L26.5266 24.2453L26.0075 24.3348H25.852L25.6083 23.9975L25.4251 23.8144L25.0575 23.3849L24.6583 23.0173L24.1985 22.68L23.7399 22.3743L23.2485 22.0989L22.728 21.8512L22.1747 21.6694L21.5014 21.4836L20.919 21.394L20.3656 21.3624L20.1522 21.3321L20.0296 21.0251L19.8465 20.5653L19.6923 20.0448L19.6331 19.5837L19.5711 19.0645L19.6014 18.5415L19.6607 18.05L19.7846 17.5612L19.9084 17.0697L20.1522 16.6099L20.3973 16.1817L20.7056 15.7838L21.0429 15.3846L21.4078 15.0169L21.8387 14.6796L22.2682 14.4043L22.757 14.1289L23.2485 13.9431L23.7399 13.7613L24.2591 13.6374L24.8098 13.5465H25.6083L26.13 13.5755L26.6505 13.6678L27.1696 13.7916L27.6624 13.9747L28.1538 14.1908L28.5807 14.4662L29.0406 14.7719L29.1025 14.8035L24.0456 6.64771L16.0453 6.70963L11.1716 14.5874L11.5089 14.3727L12.0003 14.1289L12.4905 13.9431L13.0109 13.7613L13.5327 13.6678L14.0847 13.5755L14.6039 13.5465L15.1572 13.5755L15.6777 13.6678L16.1994 13.7613L16.7199 13.9431L17.2113 14.1289L17.6699 14.3727L18.0994 14.648L18.4973 14.955L18.8662 15.3226L19.2035 15.7219L19.2958 15.8141L19.1719 16.0895L18.9585 16.5809L18.7424 17.1014L18.6212 17.6231L18.5289 18.1436L18.467 18.6943V19.2161L18.5289 19.7668L18.6212 20.3202L18.7727 20.8406L19.0177 21.4836L19.2641 21.9751L19.2958 22.0673L19.0797 22.3427L18.8965 22.5284L18.5592 22.8657L18.1613 23.203L17.7305 23.5087L17.272 23.7538L16.7818 23.9672L16.322 24.1517L15.8015 24.2453L15.2495 24.3348L14.7593 24.3652L14.2073 24.3348L13.6855 24.2729L13.1651 24.1517L12.6736 23.9975L11.9687 23.6919L11.5089 23.4468L11.0807 23.1714L10.6828 22.8341L10.3138 22.4665L9.97785 22.0673L9.67085 21.6378L9.42447 21.2082L9.1794 20.6575L9.05686 20.1963L8.93564 19.7075L8.90402 19.1858L8.87372 18.6943L8.90402 18.4189V18.328L4 26.3889L7.83152 33.0098L18.3445 32.9795L18.0388 32.8885L17.7924 32.7963L17.3023 32.5802L16.8437 32.3352L16.4129 32.0295L16.015 31.6922L15.6461 31.3246L15.3088 30.9254L15.0347 30.4958L14.7593 30.0689L14.5749 29.5762L14.422 29.0873L14.2982 28.4417L14.2666 27.9226L14.2982 27.4312L14.3285 26.941L14.422 26.4496L14.5749 25.9581L14.7896 25.4693L14.8502 25.3467L15.1876 25.3151H15.4642L16.015 25.2255L16.5974 25.0714L17.1191 24.9185L17.6396 24.7024L18.1613 24.4271L18.6212 24.1517L19.0797 23.8144L19.6607 23.2926L20.0296 22.8961L20.3656 22.4665L20.4592 22.3743H20.5211L20.8268 22.4046L21.3182 22.4968L21.869 22.618L22.3604 22.8038L22.8493 23.0173L23.3104 23.2926L23.7096 23.5983L24.1075 23.908L24.4449 24.2729L24.7821 24.6721L25.0575 25.1017L25.3013 25.5628L25.4844 26.02L25.6386 26.5115L25.7321 27.0029L25.794 27.4918V27.891L25.7624 28.4141L25.6702 28.8713L25.516 29.3627L25.3329 29.8515L25.1195 30.2824L24.7821 30.8634L24.4449 31.231L24.1392 31.6L23.7096 31.9373L23.3104 32.2429L22.8493 32.5183L22.3604 32.7344L21.869 32.9175L21.7451 32.9478H31.8615L36 25.9924L31.0327 17.9301Z"
    fill="#DC0028"
  />
</svg>
