<svg viewBox="8 8 24 24">
  <path
    d="M11.509 15.8332C13.6101 17.9438 16.4043 19.1405 19.3069 19.3581C19.1119 16.4424 17.8989 13.6355 15.7978 11.5249C13.6968 9.41432 10.9892 8.21759 8 8C8.19495 10.9157 9.40794 13.7226 11.509 15.8332ZM28.491 15.8332C26.3899 17.9438 23.5957 19.1405 20.6931 19.3581C20.8881 16.4424 22.1011 13.6355 24.2022 11.5249C26.1949 9.41432 29.0108 8.21759 32 8C31.7834 10.9157 30.5921 13.7226 28.491 15.8332ZM28.491 24.1668C26.3899 22.0562 23.5957 20.8595 20.6931 20.6419C20.8881 23.5576 22.1011 26.3645 24.2022 28.4751C26.3032 30.5857 29.0975 31.7824 32 32C31.7834 28.9973 30.5921 26.1686 28.491 24.1668ZM11.509 24.1668C13.6101 22.0562 16.4043 20.8595 19.4152 20.6419C19.2202 23.5576 18.0072 26.3645 15.9061 28.4751C13.6968 30.5857 10.9892 31.8042 8 32C8.19495 28.9973 9.40794 26.1686 11.509 24.1668Z"
    fill="#6B5AED"
  />
</svg>
